<?xml version="1.0" encoding="utf-8"?>
<!-- Generator: Adobe Illustrator 22.0.0, SVG Export Plug-In . SVG Version: 6.00 Build 0)  -->
<svg version="1.1" id="Layer_1" xmlns="http://www.w3.org/2000/svg" xmlns:xlink="http://www.w3.org/1999/xlink" x="0px" y="0px"
	 viewBox="0 0 252 47" style="enable-background:new 0 0 252 47;" xml:space="preserve">
<style type="text/css">
	.st0{fill:#FCFCFC;}
	.st1{font-family:'Quantify';}
	.st2{font-size:34.3649px;}
</style>
<title>bkng</title>
<rect x="-0.2" width="36" height="47"/>
<g>
	<path class="st0" d="M11.5,23.2l13.8,16.2c1.6-0.5,2.7-1.9,2.7-3.6V11.2c0-2.1-1.7-3.8-3.8-3.8h-1.5L11.5,20.6
		C10.8,21.4,10.8,22.4,11.5,23.2z"/>
	<path class="st0" d="M7.6,7.4v6.3c0,1,1.2,1.4,1.9,0.7l5.9-6.9H7.6z"/>
	<path class="st0" d="M18,39.6L9.4,29.4c-0.6-0.7-1.8-0.3-1.8,0.7v9.5H18z"/>
	<polygon class="st0" points="28,7.4 23.6,7.4 25.3,39.4 28,39.4 	"/>
</g>
<text transform="matrix(1 0 0 1 88.8 36.3066)" class="st1 st2">Kodlite</text>
</svg>
