<?xml version="1.0" encoding="utf-8"?>
<!-- Generator: Adobe Illustrator 22.0.0, SVG Export Plug-In . SVG Version: 6.00 Build 0)  -->
<svg version="1.1" id="Layer_1" xmlns="http://www.w3.org/2000/svg" xmlns:xlink="http://www.w3.org/1999/xlink" x="0px" y="0px"
	 viewBox="0 0 252 47" style="enable-background:new 0 0 252 47;" xml:space="preserve">
<style type="text/css">
	.st0{fill:#FCFCFC;}
	.st1{fill:#FFFFFF;}
	.st2{font-family:'Quantify';}
	.st3{font-size:34.3649px;}
</style>
<title>bkng</title>
<rect y="0" width="36" height="47"/>
<g>
	<path class="st0" d="M12.2,22l13.8,16.2c1.6-0.5,2.7-1.9,2.7-3.6V10c0-2.1-1.7-3.8-3.8-3.8h-1.5L12.2,19.4
		C11.5,20.2,11.5,21.2,12.2,22z"/>
	<path class="st0" d="M8.3,6.2v6.3c0,1,1.2,1.4,1.9,0.7L16,6.2H8.3z"/>
	<path class="st0" d="M18.7,38.4l-8.7-10.2c-0.6-0.7-1.8-0.3-1.8,0.7v9.5H18.7z"/>
	<polygon class="st0" points="28.7,6.2 24.3,6.2 26,38.2 28.7,38.2 	"/>
</g>
<text transform="matrix(1 0 0 1 86.6667 35.4316)" class="st1 st2 st3">Kodlite</text>
</svg>
