<?xml version="1.0" encoding="utf-8"?>
<!-- Generator: Adobe Illustrator 22.0.0, SVG Export Plug-In . SVG Version: 6.00 Build 0)  -->
<svg version="1.1" id="Layer_1" xmlns="http://www.w3.org/2000/svg" xmlns:xlink="http://www.w3.org/1999/xlink" x="0px" y="0px"
	 viewBox="0 0 343.7 112" style="enable-background:new 0 0 343.7 112;" xml:space="preserve">
<style type="text/css">
	.st0{fill:#FCFCFC;}
	.st1{font-family:'Quantify';}
	.st2{font-size:77.1143px;}
</style>
<title>mobile-logo</title>
<rect width="97.9" height="112"/>
<g>
	<path class="st0" d="M33.1,55.3l33.3,39.2c3.8-1.1,6.5-4.6,6.5-8.7V26.4c0-5-4.1-9.1-9.1-9.1h-3.7l-27,31.8
		C31.6,50.9,31.6,53.5,33.1,55.3z"/>
	<path class="st0" d="M23.7,17.3v15.1c0,2.4,3,3.5,4.5,1.6l14.2-16.7H23.7z"/>
	<path class="st0" d="M49,94.8L28.1,70.2c-1.5-1.8-4.4-0.7-4.4,1.6v23H49z"/>
	<polygon class="st0" points="73,17.2 62.4,17.2 66.5,94.4 73,94.4 	"/>
</g>
<text transform="matrix(1 0 0 1 105.9995 85.3643)" class="st1 st2">Kodlite</text>
</svg>
